<svg xmlns="http://www.w3.org/2000/svg" xmlns:xlink="http://www.w3.org/1999/xlink" viewBox="0,0,256,256" width="48px" height="48px" fill-rule="nonzero"><g fill="#000000" fill-rule="nonzero" stroke="none" stroke-width="1" stroke-linecap="butt" stroke-linejoin="miter" stroke-miterlimit="10" stroke-dasharray="" stroke-dashoffset="0" font-family="none" font-weight="none" font-size="none" text-anchor="none" style="mix-blend-mode: normal"><g transform="scale(5.33333,5.33333)"><path d="M42,13h-2v-5h-32v5h-2v-5c0,-1.1 0.9,-2 2,-2h32c1.1,0 2,0.9 2,2zM40,42h-32c-1.1,0 -2,-0.9 -2,-2v-5h2v5h32v-5h2v5c0,1.1 -0.9,2 -2,2z"></path><path d="M36,33h-24c-0.6,0 -1,-0.4 -1,-1v-16c0,-0.6 0.4,-1 1,-1h24c0.6,0 1,0.4 1,1v16c0,0.6 -0.4,1 -1,1z"></path><path d="M37,17.2l-11.8,8.5c-0.7,0.5 -1.6,0.5 -2.3,0l-11.9,-8.5v2.5l10.7,7.6c0.7,0.5 1.5,0.7 2.3,0.7c0.8,0 1.6,-0.2 2.3,-0.7l10.7,-7.7z"></path></g></g></svg>